<svg xmlns="http://www.w3.org/2000/svg" width="223" height="109" viewBox="0 0 223 109">
    <defs>
        <filter id="a" width="109%" height="124.2%" x="-4.5%" y="-11.7%" filterUnits="objectBoundingBox">
            <feOffset dy="2" in="SourceAlpha" result="shadowOffsetOuter1"/>
            <feGaussianBlur in="shadowOffsetOuter1" result="shadowBlurOuter1" stdDeviation="2"/>
            <feColorMatrix in="shadowBlurOuter1" result="shadowMatrixOuter1" values="0 0 0 0 0 0 0 0 0 0 0 0 0 0 0 0 0 0 0.322907561 0"/>
            <feMerge>
                <feMergeNode in="shadowMatrixOuter1"/>
                <feMergeNode in="SourceGraphic"/>
            </feMerge>
        </filter>
        <linearGradient id="b" x1="70.899%" x2="31.346%" y1=".166%" y2="94.48%">
            <stop offset="0%" stop-color="#FFF8D2"/>
            <stop offset="92.14%" stop-color="#FED702"/>
        </linearGradient>
        <linearGradient id="c" x1="70.259%" x2="31.275%" y1="1.095%" y2="95.203%">
            <stop offset="0%" stop-color="#FED702"/>
            <stop offset="92.14%" stop-color="#F8B100"/>
        </linearGradient>
        <linearGradient id="d" x1="56.28%" x2="48.019%" y1="-25.407%" y2="61.885%">
            <stop offset="0%" stop-color="#FFF8D2"/>
            <stop offset="99.96%" stop-color="#FFF8D2" stop-opacity="0"/>
        </linearGradient>
    </defs>
    <g fill="none" fill-rule="evenodd" filter="url(#a)" transform="translate(4 2)">
        <text fill="#FF6B00" font-family="Helvetica" font-size="38.4" letter-spacing="4.512" transform="translate(112.223 34.102)">
            <tspan x="0" y="37.906">ICH</tspan> <tspan x="79.667" y="37.906" letter-spacing="5.414">E</tspan>
        </text>
        <g fill-rule="nonzero">
            <ellipse cx="50.334" cy="50.109" fill="#FFDA3E" rx="50.334" ry="50.109"/>
            <g fill="#5E4F37" opacity=".55">
                <path d="M59.1 80.02H44.427V45.596H29.88V42.63H47.46v34.424h8.605V42.63H71.79v-3.585H56.437v-3.028h18.448v9.58H59.1z"/>
                <path d="M53.033 72.48h-3.034V39.045H29.694v-9.641h44.944v3.09h-41.91v3.523h20.305z"/>
            </g>
            <g fill="#F96800">
                <path d="M58.79 80.885H43.685V45.473H28.703v-3.09H46.78v35.412h8.914V42.383h16.158v-3.709H56.066v-3.09h18.943v9.889H58.79z"/>
                <path d="M52.537 73.098h-3.095V38.674H28.518v-9.888h46.244v3.152H31.675v3.646h20.862z"/>
            </g>
            <path fill="url(#b)" d="M50.577 6.427c23.524.248 42.468 19.777 42.22 43.571-.186 23.794-19.5 43.014-43.025 42.767-23.524-.247-42.467-19.776-42.22-43.57C7.739 25.4 27.053 6.18 50.578 6.427zm-.805 83.99c22.225.185 40.487-17.923 40.673-40.419.185-22.496-17.705-40.975-39.93-41.222C28.291 8.59 10.03 26.699 9.843 49.195c-.186 22.557 17.705 41.036 39.93 41.222z" transform="translate(2.455 1.222)"/>
            <path fill="url(#c)" d="M50.64.185c26.928.248 48.595 22.62 48.348 49.875-.248 27.317-22.286 49.195-49.277 48.947-26.93-.247-48.597-22.62-48.35-49.874C1.61 21.816 23.649-.062 50.64.185zm-.868 92.58c23.525.247 42.777-18.973 43.025-42.767.186-23.794-18.757-43.385-42.22-43.57C27.053 6.18 7.8 25.4 7.553 49.194c-.248 23.794 18.695 43.385 42.22 43.57z" transform="translate(2.455 1.222)"/>
            <path fill="#C47400" d="M52.475 10.925c22.225.186 40.177 18.726 39.93 41.222-.062 6.922-1.796 13.411-4.89 19.035A41.11 41.11 0 0 0 92.9 51.22c.186-22.496-17.705-40.975-39.93-41.222-15.414-.124-28.91 8.529-35.781 21.384 7.057-12.36 20.243-20.58 35.286-20.457z"/>
            <path fill="#DB8E05" d="M3.817 50.355C4.003 32.68 13.227 17.291 27.094 8.7A49.411 49.411 0 0 0 2.64 51.097c-.248 27.316 21.42 49.627 48.349 49.874 8.11.062 15.724-1.854 22.471-5.315l2.91-1.607a47.755 47.755 0 0 1-24.143 6.18C25.237 99.982 3.57 77.672 3.818 50.355z"/>
            <g fill="#FFF8D2" opacity=".2">
                <path d="M99.462 36.944a51.452 51.452 0 0 0-2.229-6.119L19.541 87.19a40.082 40.082 0 0 0 5.015 4.08l74.906-54.325zM94.138 24.769a51.778 51.778 0 0 0-10.772-12.422L6.79 67.845c1.919 5.253 4.643 10.074 8.11 14.338l79.24-57.414zM4.436 58.451c.186 1.113.372 2.287.62 3.4L78.29 8.761c-.99-.618-1.98-1.174-2.971-1.73L4.436 58.452z"/>
            </g>
            <path fill="url(#d)" d="M98.988 50.06c.247-26.946-20.8-49.01-47.296-49.875l-4.83 98.699c.93.062 1.92.123 2.91.123 26.93.248 48.968-21.63 49.216-48.947z" opacity=".45" transform="translate(2.455 1.222)"/>
        </g>
    </g>
</svg>
