<svg xmlns="http://www.w3.org/2000/svg" width="1175" height="835" viewBox="0 0 1175 835">
    <g fill="#F96800" fill-opacity=".149" fill-rule="evenodd">
        <path d="M742.983 821.25c120.21 0 337.853 57.961 421.914-64.125A207.57 207.57 0 0 0 1175 740.862c.009-.014.009-.105 0-.275V729.18l.013-153.97-.013-78.417V371.59l.013-28.63-.013-51.808.013-19.073-.013-86.884v-45.348l.013-56.643V57.612l-.013-.478c-.002-.348.003-.634.013-.857 0-.248-.004-.688-.013-1.32V53.38c.009-.757.013-1.333.013-1.727-.01-.495-.01-1.395 0-2.699v-1.4-.126c-78.52 69.848-215.614 206.491-390.43 215.064-7.466.366-15 .555-22.6.555C468.725 263.047 21 549.635 21 685.236c0 135.6 428.727 136.015 721.983 136.015z" opacity=".49"/>
        <path d="M721.983 791.25c120.21 0 337.853 57.961 421.914-64.125 12.011-17.445 22.02-37.443 31.103-59.915.106-.263.013-.555 0-.875-.02-.504-.01-1.079 0-1.725.013-.8.013-2.247 0-4.338v-46.844-14.103c-.002-3.646.08-6.503 0-8.57-.406-10.468-.258-30.7.442-60.694V426.028c-.125-49.563-.272-86.55-.442-110.962-.112-16.186-.112-39.953 0-71.302-.298-54.422-.298-93.085 0-115.99.37-28.445.37-60.621 0-96.528V5.639a619.6 619.6 0 0 0 0-3.72c-.006-1.048.167-1.616-.17-1.704-.465-.12-1.137.184-2.097.986-74.221 61.936-219.484 221.99-409.15 231.291-7.466.366-15 .555-22.6.555C447.725 233.047 0 519.635 0 655.236c0 135.6 428.727 136.015 721.983 136.015z" opacity=".185"/>
    </g>
</svg>
