<svg xmlns="http://www.w3.org/2000/svg" width="400" height="588"><g fill="none" fill-rule="evenodd"><path fill="#F6F5F4" d="M212.738 0l60.886 35.318-54.386 35.908-61.853-35.613L212.738 0"/><path fill="#DADAD7" d="M219.43 69.988l-1.354 59.044 55.548-32.207V35.097"/><path fill="#DFDFDD" d="M218.778 130.065l1.356-59.225-61.72-34.711 1.31 62.484 59.054 31.452M60.364 220.903l1.356-59.224L0 126.968l1.31 62.487 59.054 31.448"/><path fill="#F6F5F4" d="M186.533 81.85l-82.326 43.52c-1.242.654-1.704 2.17-1.032 3.384.67 1.213 2.218 1.665 3.46 1.01l82.328-43.52a2.471 2.471 0 001.033-3.385c-.673-1.215-2.221-1.665-3.463-1.01M99.057 180.29l65.804 36.162a2.596 2.596 0 003.515-1c.693-1.24.241-2.8-1.01-3.487l-65.8-36.159a2.598 2.598 0 00-3.518 1 2.55 2.55 0 001.009 3.485m154.299 103.226l65.804 36.16a2.596 2.596 0 003.515-1 2.55 2.55 0 00-1.009-3.486l-65.801-36.159a2.598 2.598 0 00-3.518 1 2.55 2.55 0 001.01 3.485"/><path fill="#F6F5F4" d="M55.352 91.871l60.887 35.32-54.387 35.906L0 127.484 55.352 91.87"/><path fill="#DFDFDD" d="M115.21 128v61.728l-55.548 32.207 1.354-59.046m144.387 148.853l1.358-59.226-61.72-34.71 1.307 62.486 59.055 31.45"/><path fill="#F6F5F4" d="M200.392 182.71l60.888 35.319-54.385 35.906-61.854-35.614 55.351-35.611"/><path fill="#DADAD7" d="M260.252 217.806v61.731l-55.548 32.205 1.356-59.044"/><path fill="#F6F5F4" d="M338.97 277L400 312.234l-54.515 35.822-61.998-35.528L338.97 277"/><path fill="#DADAD7" d="M345.678 346.822l-1.357 58.903L400 373.595v-61.582"/><path fill="#DFDFDD" d="M345.025 406.755l1.358-59.084-61.865-34.628 1.313 62.336 59.194 31.376m-158.788 90.622l1.359-59.083-61.865-34.628 1.312 62.338 59.194 31.373"/><path fill="#F6F5F4" d="M181.213 368.652l61.03 35.237-54.514 35.82-61.998-35.529 55.482-35.528"/><path fill="#DFDFDD" d="M241.212 404.695v61.582l-55.678 32.13 1.357-58.906"/><path fill="#F6F5F4" d="M312.703 358.654l-82.52 43.417c-1.244.653-1.708 2.165-1.034 3.377.67 1.21 2.223 1.661 3.468 1.007l82.522-43.416c1.243-.654 1.706-2.165 1.035-3.377-.674-1.212-2.226-1.661-3.471-1.008m-99.024 98.208l65.96 36.075a2.609 2.609 0 003.522-.998 2.54 2.54 0 00-1.011-3.479l-65.957-36.072a2.609 2.609 0 00-3.525.998 2.538 2.538 0 001.011 3.476"/><path fill="#DFDFDD" d="M331.618 588l1.361-59.085-61.865-34.627 1.31 62.337L331.618 588"/><path fill="#F6F5F4" d="M326.596 459.275l61.03 35.235-54.512 35.821-62-35.53 55.482-35.526"/><path fill="#DADAD7" d="M386.596 494.288v61.584L330.917 588l1.36-58.903"/></g></svg>